<?xml version="1.0" encoding="utf-8"?>
<!-- Generator: Adobe Illustrator 21.1.0, SVG Export Plug-In . SVG Version: 6.00 Build 0)  -->
<svg version="1.1" id="Layer_1" xmlns="http://www.w3.org/2000/svg" xmlns:xlink="http://www.w3.org/1999/xlink" x="0px" y="0px"
	 viewBox="0 0 295.5 194.8" style="enable-background:new 0 0 295.5 194.8;" xml:space="preserve">
<style type="text/css">
	.st0{fill:#231F20;}
</style>
<g>
	<path class="st0" d="M45.1,134.3c0,1.5-0.9,2.3-2.6,2.3c-1.8,0-2.6-0.8-2.6-2.3v-20.4c0-1.5,0.9-2.3,2.6-2.3c1.8,0,2.6,0.8,2.6,2.3
		V134.3z M54.2,103.1c-1.8-1.8-3.9-2.6-6.4-2.6H37.1c-2.5,0-4.6,0.9-6.3,2.6c-1.8,1.8-2.6,3.9-2.6,6.4v29.4c0,2.5,0.9,4.6,2.6,6.4
		c1.8,1.8,3.9,2.6,6.4,2.6h10.7c2.5,0,4.6-0.9,6.4-2.6c1.8-1.8,2.6-3.9,2.6-6.4v-29.4C56.8,107,55.9,104.9,54.2,103.1"/>
	<path class="st0" d="M62.4,147.4c0.3,0.3,0.7,0.4,1.1,0.4h8.3c0.5,0,0.8-0.1,1.1-0.4c0.3-0.3,0.4-0.7,0.4-1.1v-20.7l5.5,20.6
		c0.3,1.1,1,1.6,2.1,1.6h8.1c0.5,0,0.8-0.1,1.1-0.4c0.3-0.3,0.4-0.7,0.4-1.1V102c0-0.4-0.2-0.8-0.5-1.1c-0.3-0.3-0.7-0.5-1.1-0.5
		h-8.3c-0.5,0-0.8,0.2-1.1,0.5c-0.3,0.3-0.4,0.7-0.4,1.1v20.2L74.4,102c-0.2-1.1-0.9-1.6-2-1.6h-8.8c-0.4,0-0.8,0.2-1.1,0.5
		c-0.3,0.3-0.5,0.7-0.5,1.1v44.2C62,146.7,62.1,147.1,62.4,147.4"/>
	<path class="st0" d="M96.7,147.4c0.3,0.3,0.7,0.4,1.1,0.4h23.5c0.4,0,0.8-0.1,1.1-0.4c0.3-0.3,0.4-0.7,0.4-1.1v-8.1
		c0-0.4-0.2-0.7-0.4-1c-0.3-0.3-0.7-0.4-1.1-0.4h-13.3v-7h9.3c0.5,0,0.8-0.1,1.1-0.4c0.3-0.3,0.4-0.6,0.4-1v-8.1
		c0-0.4-0.2-0.8-0.4-1.1c-0.3-0.3-0.7-0.4-1.1-0.4h-9.3v-6.9h13.3c0.4,0,0.8-0.1,1.1-0.4c0.3-0.3,0.4-0.7,0.4-1.1v-8.1
		c0-0.4-0.1-0.7-0.4-1c-0.3-0.3-0.7-0.4-1.1-0.4H97.8c-0.4,0-0.8,0.1-1.1,0.4c-0.3,0.3-0.5,0.6-0.5,1v44.3
		C96.2,146.7,96.4,147.1,96.7,147.4"/>
	<path class="st0" d="M144.2,145.2c1.8,1.8,3.9,2.6,6.4,2.6h10.7c2.5,0,4.6-0.9,6.4-2.6c1.8-1.8,2.6-3.9,2.6-6.4v-9
		c0-0.4-0.1-0.8-0.4-1.1c-0.3-0.3-0.7-0.4-1.1-0.4h-8.6c-0.4,0-0.8,0.1-1.1,0.4c-0.3,0.3-0.5,0.7-0.5,1.1v4.5c0,1.5-0.9,2.3-2.6,2.3
		c-1.8,0-2.6-0.8-2.6-2.3v-20.4c0-1.5,0.9-2.3,2.6-2.3c1.8,0,2.6,0.8,2.6,2.3v4.5c0,0.5,0.2,0.8,0.5,1.1c0.3,0.3,0.7,0.4,1.1,0.4
		h8.6c0.5,0,0.8-0.1,1.1-0.4c0.3-0.3,0.4-0.7,0.4-1.1v-8.9c0-2.5-0.9-4.6-2.6-6.4c-1.8-1.8-3.9-2.6-6.4-2.6h-10.7
		c-2.5,0-4.6,0.9-6.3,2.6c-1.8,1.8-2.6,3.9-2.6,6.4v29.4C141.6,141.3,142.5,143.5,144.2,145.2"/>
	<path class="st0" d="M175.7,147.4c0.3,0.3,0.7,0.4,1.1,0.4h22.5c0.5,0,0.8-0.1,1.1-0.4c0.3-0.3,0.4-0.6,0.4-1v-8.1
		c0-0.4-0.2-0.8-0.4-1.1c-0.3-0.3-0.7-0.4-1.1-0.4H187V102c0-0.5-0.2-0.8-0.5-1.1c-0.3-0.3-0.7-0.4-1.1-0.4h-8.6
		c-0.4,0-0.8,0.2-1.1,0.5c-0.3,0.3-0.4,0.7-0.4,1.1v44.3C175.3,146.7,175.4,147.1,175.7,147.4"/>
	<path class="st0" d="M206.7,145.2c1.8,1.8,3.9,2.6,6.4,2.6h10.3c2.5,0,4.6-0.9,6.4-2.6c1.8-1.8,2.6-3.9,2.6-6.4V102
		c0-0.5-0.1-0.8-0.4-1.1c-0.3-0.3-0.7-0.4-1.1-0.4h-8.3c-0.4,0-0.8,0.2-1.1,0.5c-0.3,0.3-0.4,0.7-0.4,1.1v32c0,1.8-0.9,2.6-2.6,2.6
		c-1.8,0-2.6-0.9-2.6-2.6v-32c0-0.5-0.1-0.8-0.4-1.1c-0.3-0.3-0.7-0.4-1.1-0.4h-8.6c-0.4,0-0.8,0.2-1.1,0.5
		c-0.3,0.3-0.4,0.7-0.4,1.1v36.8C204,141.3,204.9,143.5,206.7,145.2"/>
	<path class="st0" d="M238.9,147.4c0.3,0.3,0.7,0.4,1.1,0.4h18.1c2.5,0,4.6-0.9,6.4-2.6c1.8-1.7,2.6-3.9,2.6-6.3v-7.2
		c0-3.8-1.8-6.3-5.3-7.5c3.4-1.2,5.1-3.7,5.1-7.5v-7.2c0-2.5-0.9-4.6-2.6-6.4c-1.7-1.8-3.9-2.6-6.4-2.6h-17.9
		c-0.4,0-0.8,0.1-1.1,0.4c-0.3,0.3-0.5,0.6-0.5,1v44.2C238.4,146.7,238.5,147.1,238.9,147.4 M250.1,129.8h2.7c1.7,0,2.6,1,2.6,3v2.4
		c0,2-0.9,3-2.6,3h-2.7V129.8z M250.1,110.3h2.5c1.7,0,2.6,1,2.6,3v2.3c0,2-0.9,3-2.6,3h-2.5V110.3z"/>
	<path class="st0" d="M96.7,94.4c0.3,0.3,0.7,0.4,1.1,0.4h23.5c0.4,0,0.8-0.1,1.1-0.4c0.3-0.3,0.4-0.7,0.4-1.1v-8.1
		c0-0.4-0.1-0.7-0.4-1c-0.3-0.3-0.7-0.4-1.1-0.4h-13.3v-7h9.3c0.5,0,0.8-0.1,1.1-0.4c0.3-0.3,0.4-0.6,0.4-1v-8.1
		c0-0.4-0.1-0.8-0.4-1.1c-0.3-0.3-0.7-0.4-1.1-0.4h-9.3v-6.9h13.3c0.4,0,0.8-0.1,1.1-0.4c0.3-0.3,0.4-0.7,0.4-1.1v-8.1
		c0-0.4-0.1-0.7-0.4-1c-0.3-0.3-0.7-0.4-1.1-0.4H97.8c-0.4,0-0.8,0.1-1.1,0.4c-0.3,0.3-0.5,0.6-0.5,1v44.3
		C96.2,93.7,96.4,94.1,96.7,94.4"/>
	<path class="st0" d="M62.4,94.4c0.3,0.3,0.7,0.4,1.1,0.4h8.6c0.5,0,0.8-0.1,1.1-0.4c0.3-0.3,0.4-0.7,0.4-1.1V76.7H79v16.6
		c0,0.4,0.1,0.8,0.4,1.1c0.3,0.3,0.7,0.4,1.1,0.4h8.6c0.5,0,0.8-0.1,1.1-0.4c0.3-0.3,0.4-0.7,0.4-1.1V49c0-0.5-0.2-0.8-0.5-1.1
		c-0.3-0.3-0.7-0.4-1.1-0.4h-8.6c-0.4,0-0.8,0.2-1.1,0.5C79.1,48.2,79,48.6,79,49v16.5h-5.3V49c0-0.5-0.2-0.8-0.5-1.1
		c-0.3-0.3-0.7-0.4-1.1-0.4h-8.6c-0.4,0-0.8,0.2-1.1,0.5C62.1,48.2,62,48.6,62,49v44.2C62,93.7,62.1,94.1,62.4,94.4"/>
	<path class="st0" d="M28.9,58.8c0.3,0.3,0.7,0.4,1.1,0.4h7v34.1c0,0.4,0.2,0.8,0.5,1.1c0.3,0.3,0.7,0.4,1.1,0.4h8.6
		c0.4,0,0.8-0.1,1.1-0.4c0.3-0.3,0.5-0.7,0.5-1.1V59.2h6.6c0.4,0,0.8-0.1,1.1-0.4c0.3-0.3,0.5-0.7,0.5-1.1v-8.6
		c0-0.5-0.2-0.8-0.5-1.1c-0.3-0.3-0.7-0.4-1.1-0.4H29.9c-0.4,0-0.8,0.2-1.1,0.5c-0.3,0.3-0.5,0.7-0.5,1.1v8.6
		C28.4,58.1,28.5,58.5,28.9,58.8"/>
</g>
<g>
</g>
<g>
</g>
<g>
</g>
<g>
</g>
<g>
</g>
<g>
</g>
</svg>
